<svg width="45" height="45" fill="none" xmlns="http://www.w3.org/2000/svg"><g filter="url(#a)"><mask id="b" fill="#fff"><path d="M31 16.5a8.5 8.5 0 1 1-17 0 8.5 8.5 0 0 1 17 0zm-10.2 0a1.7 1.7 0 1 0 3.4 0 1.7 1.7 0 0 0-3.4 0z"/></mask><path d="M31 16.5a8.5 8.5 0 1 1-17 0 8.5 8.5 0 0 1 17 0zm-10.2 0a1.7 1.7 0 1 0 3.4 0 1.7 1.7 0 0 0-3.4 0z" fill="#FFF" stroke="#FFF" stroke-width="2" mask="url(#b)"/><circle cx="22.5" cy="16.5" r="10" stroke="#FFF"/><circle cx="22.5" cy="16.5" r="12" stroke="#FFF"/></g><defs><filter id="a" x="0" y="0" width="45" height="45" filterUnits="userSpaceOnUse" color-interpolation-filters="sRGB"><feFlood flood-opacity="0" result="BackgroundImageFix"/><feColorMatrix in="SourceAlpha" values="0 0 0 0 0 0 0 0 0 0 0 0 0 0 0 0 0 0 127 0" result="hardAlpha"/><feOffset dy="6"/><feGaussianBlur stdDeviation="5"/><feComposite in2="hardAlpha" operator="out"/><feColorMatrix values="0 0 0 0 0.34902 0 0 0 0 0.184314 0 0 0 0 0.0392157 0 0 0 0.1 0"/><feBlend in2="BackgroundImageFix" result="effect1_dropShadow_2_235"/><feBlend in="SourceGraphic" in2="effect1_dropShadow_2_235" result="shape"/></filter></defs></svg>