<svg width="100" height="100" fill="none" xmlns="http://www.w3.org/2000/svg"><g filter="url(#a)"><mask id="b" fill="#fff"><path d="M77.2 44c0 15.022-12.178 27.2-27.2 27.2-15.022 0-27.2-12.178-27.2-27.2 0-15.022 12.178-27.2 27.2-27.2 15.022 0 27.2 12.178 27.2 27.2zm-32.64 0a5.44 5.44 0 1 0 10.88 0 5.44 5.44 0 0 0-10.88 0z"/></mask><path d="M77.2 44c0 15.022-12.178 27.2-27.2 27.2-15.022 0-27.2-12.178-27.2-27.2 0-15.022 12.178-27.2 27.2-27.2 15.022 0 27.2 12.178 27.2 27.2zm-32.64 0a5.44 5.44 0 1 0 10.88 0 5.44 5.44 0 0 0-10.88 0z" fill="#592F0A" stroke="#592F0A" stroke-width="2" mask="url(#b)"/><circle cx="50" cy="44" r="33.1" stroke="#592F0A"/><circle cx="50" cy="44" r="39.5" stroke="#592F0A"/></g><defs><filter id="a" x="0" y="0" width="100" height="100" filterUnits="userSpaceOnUse" color-interpolation-filters="sRGB"><feFlood flood-opacity="0" result="BackgroundImageFix"/><feColorMatrix in="SourceAlpha" values="0 0 0 0 0 0 0 0 0 0 0 0 0 0 0 0 0 0 127 0" result="hardAlpha"/><feOffset dy="6"/><feGaussianBlur stdDeviation="5"/><feComposite in2="hardAlpha" operator="out"/><feColorMatrix values="0 0 0 0 0.34902 0 0 0 0 0.184314 0 0 0 0 0.0392157 0 0 0 0.1 0"/><feBlend in2="BackgroundImageFix" result="effect1_dropShadow_12_3852"/><feBlend in="SourceGraphic" in2="effect1_dropShadow_12_3852" result="shape"/></filter></defs></svg>