<svg width="100" height="100" fill="none" xmlns="http://www.w3.org/2000/svg"><g filter="url(#a)"><mask id="b" fill="#fff"><path d="M63.6 50c0 7.511-6.089 13.6-13.6 13.6-7.511 0-13.6-6.089-13.6-13.6 0-7.511 6.089-13.6 13.6-13.6 7.511 0 13.6 6.089 13.6 13.6zm-16.32 0a2.72 2.72 0 1 0 5.44 0 2.72 2.72 0 0 0-5.44 0z"/></mask><path d="M63.6 50c0 7.511-6.089 13.6-13.6 13.6-7.511 0-13.6-6.089-13.6-13.6 0-7.511 6.089-13.6 13.6-13.6 7.511 0 13.6 6.089 13.6 13.6zm-16.32 0a2.72 2.72 0 1 0 5.44 0 2.72 2.72 0 0 0-5.44 0z" fill="#FAFAFA" stroke="#FAFAFA" stroke-width="2" mask="url(#b)"/><circle cx="50" cy="50" r="16.3" stroke="#FAFAFA"/><circle cx="50" cy="50" r="19.5" stroke="#FAFAFA"/></g><defs><filter id="a" x="0" y="0" width="100" height="100" filterUnits="userSpaceOnUse" color-interpolation-filters="sRGB"><feFlood flood-opacity="0" result="BackgroundImageFix"/><feColorMatrix in="SourceAlpha" values="0 0 0 0 0 0 0 0 0 0 0 0 0 0 0 0 0 0 127 0" result="hardAlpha"/><feOffset/><feGaussianBlur stdDeviation="15"/><feComposite in2="hardAlpha" operator="out"/><feColorMatrix values="0 0 0 0 1 0 0 0 0 1 0 0 0 0 1 0 0 0 0.5 0"/><feBlend mode="luminosity" in2="BackgroundImageFix" result="effect1_dropShadow_2_280"/><feBlend in="SourceGraphic" in2="effect1_dropShadow_2_280" result="shape"/></filter></defs></svg>