<svg width="45" height="45" viewBox="0 0 45 45" fill="none" xmlns="http://www.w3.org/2000/svg">
<g filter="url(#filter0_d_2_235)">
<mask id="path-1-inside-1_2_235" fill="white">
<path d="M31 16.5C31 21.1944 27.1944 25 22.5 25C17.8056 25 14 21.1944 14 16.5C14 11.8056 17.8056 8 22.5 8C27.1944 8 31 11.8056 31 16.5ZM20.8 16.5C20.8 17.4389 21.5611 18.2 22.5 18.2C23.4389 18.2 24.2 17.4389 24.2 16.5C24.2 15.5611 23.4389 14.8 22.5 14.8C21.5611 14.8 20.8 15.5611 20.8 16.5Z"/>
</mask>
<path d="M31 16.5C31 21.1944 27.1944 25 22.5 25C17.8056 25 14 21.1944 14 16.5C14 11.8056 17.8056 8 22.5 8C27.1944 8 31 11.8056 31 16.5ZM20.8 16.5C20.8 17.4389 21.5611 18.2 22.5 18.2C23.4389 18.2 24.2 17.4389 24.2 16.5C24.2 15.5611 23.4389 14.8 22.5 14.8C21.5611 14.8 20.8 15.5611 20.8 16.5Z" fill="#FFFFFF" stroke="#FFFFFF" stroke-width="2" mask="url(#path-1-inside-1_2_235)"/>
<circle cx="22.5" cy="16.5" r="10" stroke="#FFFFFF"/>
<circle cx="22.5" cy="16.5" r="12" stroke="#FFFFFF"/>
</g>
<defs>
<filter id="filter0_d_2_235" x="0" y="0" width="45" height="45" filterUnits="userSpaceOnUse" color-interpolation-filters="sRGB">
<feFlood flood-opacity="0" result="BackgroundImageFix"/>
<feColorMatrix in="SourceAlpha" type="matrix" values="0 0 0 0 0 0 0 0 0 0 0 0 0 0 0 0 0 0 127 0" result="hardAlpha"/>
<feOffset dy="6"/>
<feGaussianBlur stdDeviation="5"/>
<feComposite in2="hardAlpha" operator="out"/>
<feColorMatrix type="matrix" values="0 0 0 0 0.34902 0 0 0 0 0.184314 0 0 0 0 0.0392157 0 0 0 0.1 0"/>
<feBlend mode="normal" in2="BackgroundImageFix" result="effect1_dropShadow_2_235"/>
<feBlend mode="normal" in="SourceGraphic" in2="effect1_dropShadow_2_235" result="shape"/>
</filter>
</defs>
</svg>
