<svg width="100" height="100" viewBox="0 0 100 100" fill="none" xmlns="http://www.w3.org/2000/svg">
<g filter="url(#filter0_d_12_3852)">
<mask id="path-1-inside-1_12_3852" fill="white">
<path d="M77.2001 43.9998C77.2001 59.0219 65.0222 71.1998 50 71.1998C34.9779 71.1998 22.8 59.0219 22.8 43.9998C22.8 28.9777 34.9779 16.7998 50 16.7998C65.0222 16.7998 77.2001 28.9777 77.2001 43.9998ZM44.56 43.9998C44.56 47.0042 46.9956 49.4398 50 49.4398C53.0045 49.4398 55.44 47.0042 55.44 43.9998C55.44 40.9954 53.0045 38.5598 50 38.5598C46.9956 38.5598 44.56 40.9954 44.56 43.9998Z"/>
</mask>
<path d="M77.2001 43.9998C77.2001 59.0219 65.0222 71.1998 50 71.1998C34.9779 71.1998 22.8 59.0219 22.8 43.9998C22.8 28.9777 34.9779 16.7998 50 16.7998C65.0222 16.7998 77.2001 28.9777 77.2001 43.9998ZM44.56 43.9998C44.56 47.0042 46.9956 49.4398 50 49.4398C53.0045 49.4398 55.44 47.0042 55.44 43.9998C55.44 40.9954 53.0045 38.5598 50 38.5598C46.9956 38.5598 44.56 40.9954 44.56 43.9998Z" fill="#592F0A" stroke="#592F0A" stroke-width="2" mask="url(#path-1-inside-1_12_3852)"/>
<circle cx="49.9999" cy="43.9999" r="33.1" stroke="#592F0A"/>
<circle cx="50" cy="44" r="39.5" stroke="#592F0A"/>
</g>
<defs>
<filter id="filter0_d_12_3852" x="0" y="0" width="100" height="100" filterUnits="userSpaceOnUse" color-interpolation-filters="sRGB">
<feFlood flood-opacity="0" result="BackgroundImageFix"/>
<feColorMatrix in="SourceAlpha" type="matrix" values="0 0 0 0 0 0 0 0 0 0 0 0 0 0 0 0 0 0 127 0" result="hardAlpha"/>
<feOffset dy="6"/>
<feGaussianBlur stdDeviation="5"/>
<feComposite in2="hardAlpha" operator="out"/>
<feColorMatrix type="matrix" values="0 0 0 0 0.34902 0 0 0 0 0.184314 0 0 0 0 0.0392157 0 0 0 0.1 0"/>
<feBlend mode="normal" in2="BackgroundImageFix" result="effect1_dropShadow_12_3852"/>
<feBlend mode="normal" in="SourceGraphic" in2="effect1_dropShadow_12_3852" result="shape"/>
</filter>
</defs>
</svg>
