<svg width="30" height="30" viewBox="0 0 30 30" fill="none" xmlns="http://www.w3.org/2000/svg">
<path d="M14.9152 10.0361C12.2281 10.0361 10.0352 12.229 10.0352 14.9161C10.0352 17.6032 12.2281 19.7961 14.9152 19.7961C17.6023 19.7961 19.7952 17.6032 19.7952 14.9161C19.7952 12.229 17.6023 10.0361 14.9152 10.0361ZM29.5516 14.9161C29.5516 12.8953 29.5699 10.8927 29.4565 8.87555C29.343 6.53254 28.8085 4.45313 27.0951 2.73981C25.3782 1.02283 23.3024 0.491989 20.9594 0.3785C18.9386 0.265011 16.936 0.283315 14.9188 0.283315C12.898 0.283315 10.8955 0.265011 8.87829 0.3785C6.53529 0.491989 4.45588 1.02649 2.74255 2.73981C1.02557 4.45679 0.494736 6.53254 0.381247 8.87555C0.267757 10.8964 0.286062 12.8989 0.286062 14.9161C0.286062 16.9333 0.267757 18.9395 0.381247 20.9567C0.494736 23.2997 1.02923 25.3791 2.74255 27.0924C4.45954 28.8094 6.53529 29.3402 8.87829 29.4537C10.8991 29.5672 12.9017 29.5489 14.9188 29.5489C16.9397 29.5489 18.9422 29.5672 20.9594 29.4537C23.3024 29.3402 25.3818 28.8057 27.0951 27.0924C28.8121 25.3754 29.343 23.2997 29.4565 20.9567C29.5736 18.9395 29.5516 16.9369 29.5516 14.9161ZM14.9152 22.4247C10.76 22.4247 7.40659 19.0713 7.40659 14.9161C7.40659 10.7609 10.76 7.40751 14.9152 7.40751C19.0704 7.40751 22.4238 10.7609 22.4238 14.9161C22.4238 19.0713 19.0704 22.4247 14.9152 22.4247ZM22.7313 8.85358C21.7612 8.85358 20.9777 8.07014 20.9777 7.09999C20.9777 6.12984 21.7612 5.3464 22.7313 5.3464C23.7014 5.3464 24.4849 6.12984 24.4849 7.09999C24.4852 7.33036 24.44 7.55852 24.352 7.7714C24.264 7.98429 24.1348 8.17772 23.9719 8.34061C23.809 8.5035 23.6156 8.63266 23.4027 8.72069C23.1898 8.80871 22.9617 8.85387 22.7313 8.85358Z" fill="#E0E0E0"/>
</svg>
