<svg width="30" height="30" fill="none" xmlns="http://www.w3.org/2000/svg"><path d="M14.915 10.036a4.89 4.89 0 0 0-4.88 4.88 4.89 4.89 0 0 0 4.88 4.88 4.89 4.89 0 0 0 4.88-4.88 4.89 4.89 0 0 0-4.88-4.88zm14.637 4.88c0-2.02.018-4.023-.096-6.04-.113-2.343-.648-4.423-2.36-6.136C25.377 1.023 23.301.492 20.958.378 18.94.265 16.936.283 14.92.283c-2.021 0-4.024-.018-6.04.096-2.344.113-4.423.647-6.136 2.36C1.026 4.458.495 6.534.38 8.877c-.113 2.02-.095 4.023-.095 6.04 0 2.017-.018 4.023.095 6.04.114 2.344.648 4.423 2.362 6.136 1.717 1.717 3.792 2.248 6.135 2.362 2.021.113 4.024.095 6.04.095 2.022 0 4.024.018 6.041-.095 2.343-.114 4.423-.648 6.136-2.362 1.717-1.717 2.248-3.792 2.361-6.135.118-2.018.096-4.02.096-6.04zm-14.637 7.509a7.498 7.498 0 0 1-7.508-7.509 7.498 7.498 0 0 1 7.508-7.508 7.498 7.498 0 0 1 7.509 7.508 7.498 7.498 0 0 1-7.509 7.509zm7.816-13.571c-.97 0-1.753-.784-1.753-1.754s.783-1.754 1.753-1.754a1.751 1.751 0 0 1 1.621 2.425 1.75 1.75 0 0 1-1.62 1.083z" fill="#E0E0E0"/></svg>