<svg width="122" height="127" fill="none" xmlns="http://www.w3.org/2000/svg"><path d="M1.236 104.726c.178-1.074.628-1.876.83-2.227.298-.523.583-.868.653-.954.609-.756 2.085-2.97 5.463-8.497 2.117-8.423 4.215-16.873 6.947-25.104 4.95-14.905 14.127-26.245 27.1-34.25 4.31-2.659 8.62-5.323 12.961-7.92.792-.471.792-.79.361-1.545-1.774-3.141-3.422-6.369-5.222-9.49-3.6-6.237.526-12.87 5.533-13.56.05-.007.082-.12.127-.179h9.57c1.432.464 2.846.941 4.037 1.962 3.302 2.823 4.088 7.469 1.882 11.538a489.552 489.552 0 0 1-5.38 9.676c-.431.756-.4 1.054.374 1.531 5.552 3.413 11.262 6.555 16.605 10.326C95.657 44.9 103.87 57.1 108.022 72.33c2.276 8.344 4.551 16.688 6.814 25.032.177.656.488 1.133 1.014 1.544 1.495 1.173 2.712 1.842 3.568 2.949.361.471.545.862.76 1.339.482 1.047.913 2.505.805 7.933-.012.544-.031 1.312-.069 2.253-.032.736-.127 1.71-.393 2.83-.013.047-.26 1.081-.628 2.008-1.407 3.539-4.367 5.627-4.367 5.627-1.666 1.312-2.852 1.71-3.637 1.816-.254.033-1.712.212-1.712.212-1.61.04-3.219.086-4.829.126H12.79c-.374-.258-.792-.066-1.185-.126-1.591-.245-5.514-1.1-7.808-4.42-.92-1.333-1.433-2.85-1.693-3.612-.9-2.651-1.033-4.958-1.077-5.939a41.954 41.954 0 0 1 .006-3.121c.032-1.001.12-1.372.146-2.532.032-1.007-.019-1.073.057-1.524z" fill="#020203" stroke="#fff" stroke-miterlimit="10"/><path d="M71.257 34.014c.26.033.426.014.54.08 5.22 3.153 10.486 6.214 15.013 10.456 8.164 7.653 13.735 16.962 16.78 27.913 2.092 7.528 4.146 15.062 6.213 22.59.076.27.121.54.197.883a8.878 8.878 0 0 0-2.912.706c-1.069.456-1.24.858-2.595 1.498-1.011.481-1.723.818-2.632.778-.77-.026-1.17-.303-2.372-.937-2.276-1.187-3.408-1.827-4.623-1.965-1.068-.126-2.174-.04-3.325.27-1.221.337-2.283 1.003-3.313 1.742-1.698 1.22-3.427 1.233-5.112 0-3.803-2.784-7.567-2.771-11.357.033-1.634 1.207-3.377 1.233-5.01.026-3.835-2.83-7.618-2.857-11.465-.02-1.78 1.313-3.568 1.102-5.31-.184-2.944-2.184-6.072-2.56-9.366-.937-.592.29-1.145.692-1.685 1.075-1.749 1.24-3.491 1.247-5.215-.02-1.59-1.167-3.3-1.96-5.284-2.019-2.015-.059-3.828.541-5.493 1.716-2.448 1.728-3.67 1.735-6.08.026-1.316-.93-2.734-1.55-4.317-1.702-.458-.046-.63-.165-.483-.653 2.982-9.982 4.934-20.306 8.781-29.991 4.744-11.941 12.724-21.092 23.413-27.682 5.119-3.16 10.282-6.248 15.42-9.375.388-.238.706-.594 1.157.02 3.103 4.209 6.626 8.075 9.347 12.587 3.758 6.235 6.022 13.083 7.688 20.181.159.667.292 1.346.528 1.986.4 1.069 1.557 1.715 2.537 1.504 1.125-.244 1.888-1.214 1.876-2.434-.013-1.267-.445-2.46-.744-3.668-1.876-7.547-4.477-14.785-8.636-21.336-.667-1.042-1.392-2.032-2.162-3.147z" fill="#FF8F00"/><path d="M96.546 56.458c1.864 3.065 4.439 7.292 6.296 13.21.396 1.268 1.316 4.59 3.148 11.228 1.416 5.139.931 3.481 1.259 4.624 2.008 7.014 2.94 8.659 2.719 9.947a2.527 2.527 0 0 1-.201.62c-1.561 3.653-8.316 2.887-8.738 2.761-.158-.046-.302-.099-.302-.099a4.686 4.686 0 0 1-.554-.297.67.67 0 0 1-.139-.106c-.189-.185-.22-.436-.227-.469-.056-.303-2.977-11.162-7.032-26.227 0 0-2.606-13.058-10.702-26.42a44.614 44.614 0 0 0-3.777-5.284c-3.419-4.048-6.34-5.878-6.296-5.944.101-.145 15.5 7.596 24.546 22.456z" fill="#D46613"/><path d="M60.75 121H13.817c-2.492 0-4.583-.859-6.052-2.416-1.227-1.299-1.894-3.485-1.951-3.647-.4-1.205-.534-2.24-.636-2.998-.102-.798-.242-1.874-.146-3.254.076-1.11.14-2.058.597-3.161.84-2.023 2.359-3.031 2.886-3.39 1.933-1.306 3.605-1.536 5.505-.108 2.429 1.827 5.041 2.531 7.953 1.726 1.182-.332 2.212-.988 3.216-1.712 1.901-1.367 3.395-1.361 5.302-.021 3.98 2.795 7.222 2.795 11.163 0 1.894-1.34 3.413-1.346 5.308-.006 3.98 2.808 7.151 2.821 11.15-.014 1.799-1.279 3.521-1.265 5.314.02 3.941 2.822 7.158 2.788 11.15-.013 1.888-1.327 3.395-1.32 5.308.027 3.903 2.761 7.17 2.761 11.055.013 1.951-1.38 3.458-1.414 5.403.014 3.706 2.727 7.368 2.693 11.067-.02 1.997-1.462 3.586-1.212 5.601.142 1.615 1.082 2.409 2.53 2.74 3.16.858 1.597 1.055 3.031 1.15 3.742.363 2.788-.368 4.933-.515 5.345-.934 2.633-2.593 4.094-3 4.439-.49.413-2.257 1.909-4.774 2.098-.464.034-.935.027-1.405.027-15.479.007-30.97.007-46.456.007z" fill="#fff"/><path d="M117.996 111.051c-.084 3.054-1.581 5.212-2.186 6.087-.15.217-.332.482-.593.787 0 0-.156.19-.318.36-1.191 1.269-2.968 2.063-2.968 2.07a8.565 8.565 0 0 1-1.412.495c-.28.068-.645.142-.768.149-1.048.061-2.18-3.291-3.391-6.67-.996-2.783-1.907-5.599-2.877-8.388-.117-.332-.188-.685-.292-1.024 0 0-.254-.781-.176-.815l.039-.006.091-.014c.072-.014.306-.041.371-.047.156-.021.28-.041.462-.082.046-.007.176-.041.456-.115.201-.055.397-.109.585-.17.17-.054.443-.163.846-.346.69-.319.944-.523 2.148-1.242.976-.59 1.211-.699 1.477-.787.319-.115.775-.271 1.321-.292 1.185-.034 2.103.625 3.261 1.452.501.36.787.625.931.774.501.495.8.95 1.047 1.337.157.237.625.984 1.022 1.954.326.781.983 2.396.924 4.533z" fill="#E2E1E1"/><path d="M61.093 6.014c1.02 0 2.034-.026 3.054.007 3 .087 4.763 3.074 3.368 5.914-1.752 3.561-3.669 7.028-5.537 10.522-.381.714-1.537.727-1.918.02-1.886-3.527-3.834-7.02-5.592-10.622-1.346-2.747.357-5.7 3.233-5.827 1.13-.054 2.261-.014 3.392-.014z" fill="#FF8F00"/><path d="M84.998 72.597c-.056 1.365-1.244 2.475-2.57 2.4-1.383-.076-2.481-1.235-2.426-2.566.062-1.482 1.175-2.503 2.66-2.427 1.41.069 2.391 1.158 2.336 2.593zM26.579 115.991c-3.771 0-7.543.024-11.314-.006-3.59-.031-6.163-2.306-6.263-5.474-.044-1.393.671-2.299 1.964-2.484 1.255-.178 2.284.524 2.51 1.886.213 1.258.941 1.554 2.102 1.554 7.543-.025 15.086-.019 22.635-.007 1.864 0 2.88.9 2.78 2.41-.069 1.017-.627 1.689-1.613 1.96-.47.13-.985.161-1.48.161-3.778.006-7.55 0-11.321 0zM48.55 116.999c-1.34.041-2.5-1.065-2.548-2.419a2.475 2.475 0 0 1 2.374-2.578c1.437-.061 2.617 1.052 2.624 2.461.007 1.347-1.105 2.502-2.45 2.536z" fill="#020203"/><path d="M49.977 38.173c.38.69-3.933 3.165-11.649 11.224-5.434 5.68-7.628 8.978-8.195 8.569-.686-.503 1.321-6.283 5.154-10.97 5.796-7.08 14.185-9.735 14.69-8.823zM56.847 9.632c-.382 1.928.587 3.235.297 3.359-.363.154-2.506-1.644-2.09-3.53.368-1.685 2.617-2.667 2.914-2.424.225.183-.804.975-1.12 2.595z" fill="#FBCA71"/><path d="M65.842 12.176c.807-2.864.732-4.118 1.16-4.174.36-.05.87.755.978 1.473.151 1.035-.574 1.241-1.652 3.587-.246.637-.499 1.005-.77 1.448-.158.262-.057.112-.8 1.44 0 0-.152.27-.398.619-.12.174-.322.449-.353.43-.044-.025.138-.418.283-.73.095-.206.757-1.672 1.155-2.783.157-.455.246-.78.397-1.31z" fill="#D46613"/><path d="M31.133 83.932c-1.7.304-2.541.502-4.204 1.018-.41.125-.929.033-.929-.463 0-.25.07-.502.48-.634.158-.053.342-.376.342-.793 0-3.904.006-5.852.006-9.75 0-.435-.177-.647-.341-.6-.411.132-.48-.073-.48-.317 0-.496.518-.826.928-.952 2.27-.7 3.433-.951 5.765-1.255.493-.066.885-.145 1.27-.178.589-.053.867.158.867.693 0 .403.019.687-.076 1.493-.145 1.229-.5 1.434-.72 1.453-.519.047-.5-1.023-.923-1.657-.405-.615-1.252-.417-2.276-.225-.474.086-.714.139-1.182.244-.38.086-.436.271-.436.674v3.99s.796-.621 2.465-.885c1.909-.304 4.311.535 4.311 3.336-.013 3.375-3.04 4.485-4.867 4.808zm-.291-6.744c-.84.159-1.618.456-1.618.931v4.466c0 .343.164.396.436.337.563-.126.84-.179 1.403-.284 1.372-.245 2.295-1.328 2.295-3.118 0-1.962-.999-2.61-2.516-2.332zM48.032 87.983c-.588-.182-.6-1.737-.917-2.45-.271-.62-.549-.707-1.459-.922-2.13-.499-3.208-.667-5.37-.835-.6-.047-1.266-.08-1.472.458-.4.996-.53 2.16-1.097 2.153-.698-.006-.717-1.864-.717-3.203 0-.7.323-.842.717-.842.187 0 .606-.067.832-.316.717-.814 1.55-2.16 2.001-6.535.117-1.023.136-1.912.136-2.403 0-1.77-.678-1.925-.885-1.938-.432-.027-.47-.263-.47-.512 0-.485.51-.673 1-.633 2.924.236 4.383.498 7.23 1.333.42.121.968.458.968.962 0 .256-.071.458-.49.33-.162-.054-.35.169-.35.613 0 3.964-.006 5.95-.006 9.914 0 .66.368.774.549.828.42.134.768.195.768.773 0 1.63-.252 3.44-.968 3.225zm-2.789-15.346c0-.41-.052-.6-.445-.68a33.484 33.484 0 0 0-2.298-.404c-.413-.06-.471.115-.471.519 0 .834-.11 3.439-.381 5.337-.388 2.719-1.13 4.469-1.66 5.034 1.93.135 2.893.27 4.797.667.394.08.445-.061.445-.451.007-4.005.007-6.01.013-10.022z" fill="#020203"/></svg>