<svg width="30" height="30" fill="none" xmlns="http://www.w3.org/2000/svg"><path fill-rule="evenodd" clip-rule="evenodd" d="M30 15c0 8.284-6.716 15-15 15-8.284 0-15-6.716-15-15C0 6.716 6.716 0 15 0c8.284 0 15 6.716 15 15zm-14.463-3.926c-1.458.606-4.375 1.862-8.747 3.767-.71.283-1.083.559-1.116.829-.058.458.515.638 1.292.881l.329.105c.766.249 1.796.54 2.331.552.486.01 1.029-.19 1.628-.6 4.085-2.76 6.193-4.153 6.326-4.183.094-.021.224-.049.311.03.088.078.079.225.07.265-.057.241-2.3 2.327-3.462 3.408-.363.336-.62.575-.672.63-.117.12-.237.237-.352.348-.713.685-1.245 1.2.03 2.04.612.404 1.102.738 1.591 1.07.534.364 1.066.726 1.756 1.179.175.115.343.234.507.35.62.444 1.18.841 1.87.779.4-.038.815-.414 1.025-1.538.496-2.657 1.473-8.412 1.7-10.785a2.636 2.636 0 0 0-.025-.59.632.632 0 0 0-.215-.406c-.18-.146-.457-.178-.582-.175-.563.01-1.428.311-5.595 2.044z" fill="#592F0A"/></svg>