<svg width="32" height="32" fill="none" xmlns="http://www.w3.org/2000/svg"><path d="M15.2.005C12.632.036 7.11.458 4.02 3.292 1.724 5.568.922 8.933.828 13.095.75 17.24.656 25.028 8.162 27.148v3.23s-.047 1.292.807 1.557c1.052.333 1.651-.661 2.651-1.73l1.866-2.108c5.135.427 9.069-.558 9.522-.704 1.042-.332 6.912-1.083 7.87-8.87.985-8.044-.478-13.111-3.12-15.403h-.016c-.797-.735-4-3.069-11.157-3.095 0 0-.531-.036-1.385-.02zm.088 2.261a16.94 16.94 0 0 1 1.172.026c6.058.016 8.949 1.84 9.631 2.454 2.224 1.906 3.37 6.474 2.531 13.19-.797 6.51-5.557 6.922-6.438 7.203-.375.12-3.84.974-8.204.693 0 0-3.25 3.923-4.267 4.933-.16.177-.349.229-.469.203-.172-.042-.224-.255-.214-.547l.031-5.36c-6.366-1.76-5.99-8.402-5.923-11.871.078-3.47.73-6.308 2.668-8.23 2.609-2.36 7.298-2.678 9.48-2.694h.002zm.48 3.469a.397.397 0 0 0-.401.396c0 .224.182.4.4.4a7.514 7.514 0 0 1 5.377 2.121c1.453 1.411 2.16 3.308 2.188 5.787 0 .219.177.401.4.401v-.016a.4.4 0 0 0 .402-.396 8.615 8.615 0 0 0-2.417-6.35c-1.584-1.547-3.59-2.344-5.95-2.344zm-5.272.917a1.252 1.252 0 0 0-.818.161h-.02A6.277 6.277 0 0 0 8.13 8.068c-.365.422-.563.85-.615 1.26-.031.245-.01.49.063.724l.026.016c.41 1.209.948 2.37 1.604 3.465a20.376 20.376 0 0 0 3.094 4.23l.036.051.057.042.036.042.042.036a20.673 20.673 0 0 0 4.241 3.11c1.76.958 2.828 1.41 3.47 1.599v.01c.187.057.358.083.53.083a2.452 2.452 0 0 0 1.47-.63c.494-.44.913-.957 1.24-1.531v-.01c.307-.578.203-1.126-.24-1.495a18.47 18.47 0 0 0-2.866-2.058c-.682-.37-1.375-.146-1.656.23l-.599.754c-.307.375-.865.323-.865.323l-.016.01c-4.162-1.063-5.272-5.276-5.272-5.276s-.052-.573.333-.865l.75-.604c.36-.293.61-.984.225-1.668a17.99 17.99 0 0 0-2.053-2.865 1.14 1.14 0 0 0-.672-.401l.002.002zM16.46 7.84c-.531 0-.531.802.005.802a5.026 5.026 0 0 1 3.531 1.531 4.662 4.662 0 0 1 1.199 3.428.403.403 0 0 0 .4.396l.017.02a.404.404 0 0 0 .4-.4c.037-1.59-.457-2.923-1.427-3.99-.974-1.069-2.333-1.668-4.068-1.787h-.057zm.657 2.156c-.547-.016-.568.803-.026.819 1.318.068 1.958.734 2.042 2.104a.398.398 0 0 0 .396.39h.016a.403.403 0 0 0 .385-.426c-.094-1.786-1.068-2.793-2.797-2.886h-.016z" fill="#592F0A"/></svg>