<svg width="30" height="30" fill="none" xmlns="http://www.w3.org/2000/svg"><g clip-path="url(#a)"><path d="M14.25.005C11.842.034 6.665.43 3.77 3.085 1.616 5.22.864 8.376.776 12.277.703 16.164.615 23.464 7.652 25.452v3.027s-.044 1.212.756 1.46c.987.312 1.548-.62 2.486-1.621l1.749-1.977c4.814.4 8.502-.523 8.927-.66.977-.312 6.48-1.015 7.379-8.316.922-7.54-.45-12.291-2.926-14.44h-.015c-.747-.689-3.75-2.877-10.46-2.901 0 0-.498-.034-1.298-.02zm.082 2.12c.684-.005 1.1.024 1.1.024 5.678.015 8.389 1.724 9.028 2.3 2.086 1.787 3.16 6.07 2.373 12.365-.747 6.104-5.21 6.49-6.036 6.754-.352.113-3.6.913-7.691.65 0 0-3.047 3.677-4 4.624-.15.166-.327.215-.44.19-.161-.039-.21-.239-.2-.512l.029-5.025c-5.968-1.65-5.617-7.877-5.553-11.13.073-3.252.684-5.913 2.5-7.715 2.447-2.212 6.842-2.51 8.888-2.525h.002zm.45 3.251a.372.372 0 0 0-.376.372c0 .21.171.376.376.376a7.044 7.044 0 0 1 5.04 1.987c1.362 1.323 2.026 3.101 2.052 5.425 0 .206.166.377.376.377v-.015a.375.375 0 0 0 .375-.372 8.077 8.077 0 0 0-2.266-5.953c-1.484-1.45-3.365-2.197-5.577-2.197zm-4.942.86a1.174 1.174 0 0 0-.767.151h-.02a5.885 5.885 0 0 0-1.43 1.177c-.343.396-.528.796-.577 1.181-.029.23-.01.46.06.68l.024.014a16.9 16.9 0 0 0 1.503 3.248 19.103 19.103 0 0 0 2.901 3.965l.034.049.054.04.033.039.04.034a19.381 19.381 0 0 0 3.975 2.915c1.65.898 2.652 1.323 3.253 1.499v.01c.176.053.337.077.498.077a2.3 2.3 0 0 0 1.377-.59 5.685 5.685 0 0 0 1.163-1.436v-.01c.288-.541.19-1.054-.225-1.401a17.314 17.314 0 0 0-2.687-1.929c-.639-.347-1.289-.137-1.552.215l-.562.708c-.288.351-.81.302-.81.302l-.016.01c-3.901-.997-4.942-4.947-4.942-4.947s-.049-.537.312-.811l.703-.566c.337-.274.571-.923.21-1.563a16.87 16.87 0 0 0-1.924-2.687 1.069 1.069 0 0 0-.63-.376l.002.002zm5.591 1.114c-.498 0-.498.752.005.752a4.713 4.713 0 0 1 3.31 1.436 4.37 4.37 0 0 1 1.124 3.213.378.378 0 0 0 .376.371l.015.02a.379.379 0 0 0 .376-.376c.034-1.49-.43-2.74-1.338-3.741-.913-1.002-2.188-1.563-3.814-1.675h-.054zm.616 2.022c-.513-.015-.532.752-.024.767 1.236.063 1.836.688 1.914 1.972a.373.373 0 0 0 .372.367h.015a.378.378 0 0 0 .36-.4c-.087-1.675-1-2.618-2.622-2.705h-.015v-.001z" fill="#E0E0E0"/></g><defs><clipPath id="a"><path fill="#fff" d="M0 0h30v30H0z"/></clipPath></defs></svg>