<svg width="38" height="38" viewBox="0 0 38 38" fill="none" xmlns="http://www.w3.org/2000/svg">
<path fill-rule="evenodd" clip-rule="evenodd" d="M19 0.666748C8.87502 0.666748 0.666687 8.87508 0.666687 19.0001C0.666687 29.1251 8.87502 37.3334 19 37.3334C29.125 37.3334 37.3334 29.1251 37.3334 19.0001C37.3334 8.87508 29.125 0.666748 19 0.666748ZM22.6784 13.5117C22.9819 13.1974 23.1499 12.7764 23.1461 12.3394C23.1423 11.9024 22.9671 11.4844 22.658 11.1754C22.349 10.8664 21.931 10.6911 21.494 10.6873C21.057 10.6835 20.636 10.8515 20.3217 11.1551L13.655 17.8217C13.3426 18.1343 13.167 18.5581 13.167 19.0001C13.167 19.442 13.3426 19.8659 13.655 20.1784L20.3217 26.8451C20.636 27.1487 21.057 27.3167 21.494 27.3129C21.931 27.3091 22.349 27.1338 22.658 26.8248C22.9671 26.5158 23.1423 26.0977 23.1461 25.6607C23.1499 25.2238 22.9819 24.8027 22.6784 24.4884L17.19 19.0001L22.6784 13.5117Z" fill="#592F0A"/>
</svg>
