<svg width="24" height="13" viewBox="0 0 24 13" fill="none" xmlns="http://www.w3.org/2000/svg">
<path d="M12 12.6666C11.6106 12.6673 11.2332 12.5317 10.9333 12.2832L0.933325 3.94989C0.592964 3.66699 0.378923 3.26047 0.33829 2.81976C0.297657 2.37905 0.433761 1.94025 0.716658 1.59989C0.999556 1.25953 1.40607 1.04549 1.84679 1.00486C2.2875 0.964222 2.7263 1.10032 3.06666 1.38322L12 8.84989L20.9333 1.64989C21.1038 1.51145 21.3 1.40806 21.5105 1.34567C21.7211 1.28329 21.9419 1.26313 22.1603 1.28636C22.3787 1.3096 22.5903 1.37576 22.783 1.48105C22.9758 1.58634 23.1458 1.72868 23.2833 1.89989C23.436 2.07126 23.5516 2.2723 23.6229 2.49043C23.6942 2.70855 23.7197 2.93905 23.6978 3.16749C23.6759 3.39593 23.607 3.61738 23.4956 3.81798C23.3841 4.01857 23.2324 4.19398 23.05 4.33322L13.05 12.3832C12.7415 12.5924 12.3718 12.6922 12 12.6666Z" fill="#616161"/>
</svg>
